<svg xmlns="http://www.w3.org/2000/svg" viewBox="0 0 1200 800" role="img" aria-labelledby="title desc">
  <title id="title">Open book leaning on a laptop with neon lighting</title>
  <desc id="desc">Illustration of an open book in front of a laptop bathed in vibrant pink and blue lighting.</desc>
  <defs>
    <linearGradient id="bgGradient" x1="0%" y1="0%" x2="100%" y2="100%">
      <stop offset="0%" stop-color="#ff2da8" />
      <stop offset="50%" stop-color="#8a39ff" />
      <stop offset="100%" stop-color="#00c6ff" />
    </linearGradient>
    <linearGradient id="pageGradient" x1="0%" y1="0%" x2="100%" y2="100%">
      <stop offset="0%" stop-color="#f5f5ff" stop-opacity="0.95" />
      <stop offset="100%" stop-color="#d6ddff" stop-opacity="0.85" />
    </linearGradient>
    <linearGradient id="coverGradient" x1="0%" y1="0%" x2="100%" y2="100%">
      <stop offset="0%" stop-color="#f82f89" />
      <stop offset="100%" stop-color="#6321ff" />
    </linearGradient>
    <linearGradient id="laptopGradient" x1="0%" y1="0%" x2="100%" y2="100%">
      <stop offset="0%" stop-color="#0b1536" />
      <stop offset="100%" stop-color="#223a7a" />
    </linearGradient>
    <linearGradient id="screenGradient" x1="0%" y1="0%" x2="0%" y2="100%">
      <stop offset="0%" stop-color="#2f74ff" />
      <stop offset="100%" stop-color="#0d1b3c" />
    </linearGradient>
    <linearGradient id="keyboardGradient" x1="0%" y1="0%" x2="100%" y2="100%">
      <stop offset="0%" stop-color="#17244b" />
      <stop offset="100%" stop-color="#314a7a" />
    </linearGradient>
    <filter id="softGlow" x="-20%" y="-20%" width="140%" height="140%">
      <feGaussianBlur stdDeviation="30" result="blur" />
      <feMerge>
        <feMergeNode in="blur" />
        <feMergeNode in="SourceGraphic" />
      </feMerge>
    </filter>
  </defs>
  <rect width="1200" height="800" fill="url(#bgGradient)" />
  <ellipse cx="520" cy="640" rx="360" ry="120" fill="#000" opacity="0.45" />
  <ellipse cx="830" cy="650" rx="300" ry="100" fill="#000" opacity="0.35" />
  <g filter="url(#softGlow)">
    <g transform="translate(260 210) rotate(-6)">
      <path d="M10 140 L210 30 L410 140 L410 470 L210 580 L10 470 Z" fill="url(#coverGradient)" opacity="0.9" />
      <path d="M210 30 L390 120 Q410 130 410 150 L410 470 L210 360 Z" fill="#c92789" opacity="0.75" />
      <path d="M210 30 L30 120 Q10 130 10 150 L10 470 L210 360 Z" fill="#9a3bff" opacity="0.75" />
      <path d="M40 170 L210 80 L380 170 L380 430 L210 520 L40 430 Z" fill="url(#pageGradient)" />
      <path d="M210 80 L210 520" stroke="#d2d8ff" stroke-width="4" opacity="0.6" />
      <path d="M110 200 Q210 170 310 200" stroke="#c9cff7" stroke-width="6" opacity="0.3" fill="none" />
      <path d="M110 260 Q210 230 310 260" stroke="#c9cff7" stroke-width="6" opacity="0.25" fill="none" />
      <path d="M110 320 Q210 290 310 320" stroke="#c9cff7" stroke-width="6" opacity="0.2" fill="none" />
    </g>
    <g transform="translate(640 160)">
      <path d="M60 40 H460 Q500 40 520 60 V420 Q520 460 480 460 H60 Q20 460 20 420 V80 Q20 40 60 40 Z" fill="url(#laptopGradient)" />
      <rect x="80" y="80" width="380" height="260" rx="12" fill="url(#screenGradient)" />
      <rect x="80" y="110" width="380" height="18" rx="8" fill="#1b2d5a" opacity="0.6" />
      <rect x="80" y="150" width="380" height="18" rx="8" fill="#1b2d5a" opacity="0.45" />
      <rect x="80" y="190" width="380" height="18" rx="8" fill="#1b2d5a" opacity="0.35" />
      <rect x="80" y="230" width="250" height="18" rx="8" fill="#1b2d5a" opacity="0.25" />
      <rect x="80" y="320" width="380" height="26" rx="12" fill="#0f1b3e" opacity="0.8" />
      <path d="M0 460 H540 L580 560 Q590 580 570 590 H30 Q10 580 20 560 Z" fill="url(#keyboardGradient)" />
      <rect x="220" y="480" width="120" height="20" rx="10" fill="#1c2f56" opacity="0.6" />
    </g>
  </g>
</svg>
