<svg xmlns="http://www.w3.org/2000/svg" version="1.1" xmlns:xlink="http://www.w3.org/1999/xlink" xmlns:svgjs="http://svgjs.dev/svgjs" width="360" height="640" preserveAspectRatio="none" viewBox="0 0 1440 560">
    <g mask="url(&quot;#SvgjsMask1184&quot;)" fill="none">
        <rect width="1440" height="560" x="0" y="0" fill="url(&quot;#SvgjsLinearGradient1185&quot;)"></rect>
        <path d="M271.8 659.62C408.11 646.49 493.35 360.13 729.27 358.35 965.19 356.57 958.01 428.35 1186.74 428.35 1415.48 428.35 1528.51 358.55 1644.21 358.35" stroke="rgba(246, 100, 0, 1)" stroke-width="2"></path>
        <path d="M457.47 644.28C644.74 596.56 702.33 94.44 991.72 85.57 1281.11 76.7 1389.51 196.97 1525.97 197.57" stroke="rgba(246, 100, 0, 1)" stroke-width="2"></path>
        <path d="M206.16 597.85C344.4 585.61 433.61 301.76 674.69 300.13 915.76 298.5 908.95 370.13 1143.21 370.13 1377.48 370.13 1493.31 300.32 1611.74 300.13" stroke="rgba(246, 100, 0, 1)" stroke-width="2"></path>
        <path d="M731.81 582.38C877.93 557.77 950.19 201.04 1183.91 199.07 1417.64 197.1 1517.29 342.89 1636.02 344.67" stroke="rgba(246, 100, 0, 1)" stroke-width="2"></path>
        <path d="M78.57 610.7C211.39 604.69 314.45 379.32 557.13 378.75 799.81 378.18 796.41 448.75 1035.69 448.75 1274.97 448.75 1393.34 378.93 1514.25 378.75" stroke="rgba(246, 100, 0, 1)" stroke-width="2"></path>
    </g>
    <defs>
        <mask id="SvgjsMask1184">
            <rect width="1440" height="560" fill="#ffffff"></rect>
        </mask>
        <linearGradient x1="84.72%" y1="-39.29%" x2="15.28%" y2="139.29%" gradientUnits="userSpaceOnUse" id="SvgjsLinearGradient1185">
            <stop stop-color="#0e2a47" offset="0"></stop>
            <stop stop-color="rgba(195, 0, 255, 1)" offset="1"></stop>
        </linearGradient>
    </defs>
</svg>
